<svg width="30" height="30" viewBox="0 0 30 30" fill="none" xmlns="http://www.w3.org/2000/svg">
<g clip-path="url(#clip0_115_14)">
<path d="M15 0C6.72867 0 0 6.72867 0 15C0 23.2713 6.72867 30 15 30C23.2713 30 30 23.2713 30 15C30 6.72867 23.2713 0 15 0Z" fill="#FF891F"/>
<path d="M21.5625 16.2499H16.2499V21.5625C16.2499 22.2525 15.69 22.8124 15 22.8124C14.3099 22.8124 13.7501 22.2525 13.7501 21.5625V16.2499H8.43748C7.74742 16.2499 7.18756 15.69 7.18756 15C7.18756 14.3099 7.74742 13.7501 8.43748 13.7501H13.7501V8.43748C13.7501 7.74742 14.3099 7.18756 15 7.18756C15.69 7.18756 16.2499 7.74742 16.2499 8.43748V13.7501H21.5625C22.2525 13.7501 22.8124 14.3099 22.8124 15C22.8124 15.69 22.2525 16.2499 21.5625 16.2499Z" fill="#FAFAFA"/>
</g>
<defs>
<clipPath id="clip0_115_14">
<rect width="30" height="30" fill="white"/>
</clipPath>
</defs>
</svg>
