<svg width="30" height="30" viewBox="0 0 30 30" fill="none" xmlns="http://www.w3.org/2000/svg">
<g clip-path="url(#clip0_112_2)">
<path d="M15 0C6.72867 0 0 6.72867 0 15C0 23.2713 6.72867 30 15 30C23.2713 30 30 23.2713 30 15C30 6.72867 23.2713 0 15 0Z" fill="#2196F3"/>
<path d="M21.5625 16.2499H16.25V21.5625C16.25 22.2526 15.6901 22.8124 15 22.8124C14.31 22.8124 13.7501 22.2526 13.7501 21.5625V16.2499H8.43754C7.74749 16.2499 7.18762 15.6901 7.18762 15C7.18762 14.31 7.74749 13.7501 8.43754 13.7501H13.7501V8.43751C13.7501 7.74745 14.31 7.18759 15 7.18759C15.6901 7.18759 16.25 7.74745 16.25 8.43751V13.7501H21.5625C22.2526 13.7501 22.8125 14.31 22.8125 15C22.8125 15.6901 22.2526 16.2499 21.5625 16.2499Z" fill="#FAFAFA"/>
</g>
<defs>
<clipPath id="clip0_112_2">
<rect width="30" height="30" fill="white"/>
</clipPath>
</defs>
</svg>
